<svg width="500" height="500" viewBox="0 0 500 500" fill="none" xmlns="http://www.w3.org/2000/svg">
<path d="M180 385.625V368.125C180 365.719 178.031 363.75 175.625 363.75C173.219 363.75 171.25 365.719 171.25 368.125V385.625C171.25 388.031 173.219 390 175.625 390C178.031 390 180 388.031 180 385.625ZM328.75 385.625V368.125C328.75 365.719 326.781 363.75 324.375 363.75C321.969 363.75 320 365.719 320 368.125V385.625C320 388.031 321.969 390 324.375 390C326.781 390 328.75 388.031 328.75 385.625Z" fill="#223645"/>
<path d="M323.938 265.531L290.687 251.969C289.375 251.531 288.5 250.219 288.063 248.906L284.125 232.938C293.531 220.688 299.219 205.594 300.312 189.188V188.969V185.25C302.281 180.438 310.375 157.469 302.063 138C297.469 127.5 288.937 119.844 276.469 115.25C259.187 108.906 244.75 108.469 233.812 113.5C226.594 117 222.656 122.031 220.687 125.312C215.875 125.531 206.687 127.281 200.344 135.594C192.031 146.312 191.813 163.594 199.688 187.219V188.969V189.188C200.563 204.5 205.812 218.938 214.562 231.188C215 231.844 215.438 232.281 215.875 232.938L211.937 249.125C211.937 249.344 211.719 249.781 211.5 250C211.063 250.875 210.188 251.531 209.313 251.969L176.063 265.531C154.625 274.281 140.625 294.844 140.625 318.25V385.625C140.625 388.031 142.594 390 145 390C147.406 390 149.375 388.031 149.375 385.625V318.25C149.375 299.656 159.875 283.031 176.5 274.937V311.25L159.875 323.062C158.781 323.937 158.125 325.25 158.125 326.562V350.625C158.125 353.031 160.094 355 162.5 355H166.875C169.281 355 171.25 353.031 171.25 350.625C171.25 348.219 169.281 346.25 166.875 346.25V328.75L180.438 319.125L194 328.75V346.25H193.125C190.719 346.25 188.75 348.219 188.75 350.625C188.75 353.031 190.719 355 193.125 355H198.375C200.781 355 202.75 353.031 202.75 350.625V326.562C202.75 325.25 202.094 323.937 201 323.062L185.25 311.906V271.219L203.406 263.781L193.344 292.219C192.469 294.406 193.563 296.812 195.75 297.687L208.656 303.156L210.625 324.594C210.625 325.687 211.281 326.781 212.156 327.437L247.156 358.062C247.156 358.062 247.375 358.062 247.375 358.281L247.594 358.5C248.031 358.719 248.25 358.937 248.688 358.937H248.906C249.344 358.937 249.781 359.156 250 359.156C250.438 359.156 250.875 359.156 251.094 358.937H251.312C251.75 358.719 251.969 358.719 252.406 358.5C252.406 358.5 252.625 358.5 252.625 358.281C252.625 358.281 252.844 358.281 252.844 358.062L287.844 327.437C288.719 326.781 289.156 325.687 289.375 324.594L291.344 303.156L304.25 297.687C306.438 296.812 307.313 294.406 306.656 292.219L296.594 263.781L315.625 271.437V309.5C308.187 311.469 302.5 318.25 302.5 326.344C302.5 335.969 310.375 343.844 320 343.844C329.625 343.844 337.5 335.969 337.5 326.344C337.5 318.25 331.813 311.469 324.375 309.5V275.375C340.344 283.469 350.625 299.875 350.625 318.25V385.625C350.625 388.031 352.594 390 355 390C357.406 390 359.375 388.031 359.375 385.625V318.25C359.375 294.844 345.375 274.281 323.938 265.531ZM207.125 141.062C212.156 134.5 220.031 134.062 222.438 134.062C222.875 134.062 223.094 134.062 223.094 134.062C225.063 134.281 226.813 132.969 227.469 131.219C227.469 131.219 229.875 125.094 237.531 121.594C246.281 117.437 258.75 118.312 273.625 123.562C283.688 127.281 290.469 133.187 294.187 141.5C299 152.656 297.031 165.562 295.062 174.094C288.719 166.656 279.313 164.469 257.219 163.156C233.156 161.844 230.313 151.125 230.094 150.031V149.813C229.656 147.406 227.469 145.875 225.062 146.094C222.656 146.531 221.125 148.5 221.344 150.906C221.344 150.906 221.344 150.906 221.344 151.125C223.531 164.469 213.25 174.969 206.906 179.781C201.219 161.625 201.438 148.5 207.125 141.062ZM208.438 188.969C213.469 185.687 225.281 176.5 229 162.938C234.25 167.094 242.563 170.812 256.344 171.469C285 173.219 287.625 176.719 291.562 185.25V188.75C290.25 210.187 279.75 229.219 262.906 241.25C255.031 246.719 244.969 246.719 237.313 241.25C231.406 237.094 226.156 231.844 221.781 225.719C213.906 215.438 209.313 202.531 208.438 188.969ZM279.313 249.562L250 280.844L220.469 250.437L222.875 240.812C225.719 243.656 228.781 246.281 232.062 248.688C237.531 252.406 243.656 254.375 249.781 254.375C256.125 254.375 262.25 252.406 267.719 248.469C271 246.062 274.063 243.437 276.906 240.812L279.313 249.562ZM219.156 322.187L217.188 299.875C216.969 298.344 216.094 296.812 214.562 296.156L202.969 291.125L210.844 268.812L239.281 339.687L219.156 322.187ZM250 343.187L216.094 258.75L246.719 290.25C247.594 291.125 248.688 291.562 249.781 291.562C250.875 291.562 252.188 291.125 252.844 290.25L283.25 257.875C283.469 258.094 283.469 258.094 283.688 258.312L250 343.187ZM297.031 291.344L285.437 296.375C283.906 297.031 283.031 298.344 282.812 300.094L280.844 322.187L260.938 339.687L289.156 269.031L297.031 291.344ZM328.75 326.562C328.75 331.375 324.813 335.312 320 335.312C315.187 335.312 311.25 331.375 311.25 326.562C311.25 321.75 315.187 317.812 320 317.812C324.813 317.812 328.75 321.75 328.75 326.562Z" fill="#223645"/>
</svg>
