<svg width="178" height="208" fill="none" xmlns="http://www.w3.org/2000/svg"><g clip-path="url(#a)" fill="#E8ECF0"><path d="M87.31 0h5c12.033 1.94 19.95 3.503 23.75 4.69 2.667.827 4.307 2.547 4.92 5.16.313 1.34.2 2.923-.34 4.75a31.072 31.072 0 0 1-1.72 4.54 1.038 1.038 0 0 0 .34 1.29c4.227 3.027 7.68 7.14 10.36 12.34.54 1.04.427 2.003-.34 2.89-1.893 2.18-3.643 1.817-5.25-1.09-1.8-3.24-4.203-6.023-7.21-8.35a.432.432 0 0 0-.65.14c-2.32 4.46-5.96 6.507-10.92 6.14H78.12c-4.94 0-7.843-.11-8.71-.33-3.14-.807-5.46-2.913-6.96-6.32a.439.439 0 0 0-.287-.245.418.418 0 0 0-.363.075c-5.073 3.993-8.34 8.933-9.8 14.82-.707 2.847-1.18 8.91-1.42 18.19a.704.704 0 0 0 .12.43c.085.12.205.202.34.23.747.167 1.15-.283 1.21-1.35.52-8.773 4.63-15.36 12.33-19.76 2.06-1.173 3.963-1.757 5.71-1.75 1.407.013 2.607.52 3.6 1.52 7.633 7.687 16.353 12.757 26.16 15.21 7.167 1.8 13.4 2.893 18.7 3.28 2.44.18 4.4.903 5.88 2.17.287.241.583.395.85.44l1.46.26a.403.403 0 0 0 .34-.098.421.421 0 0 0 .14-.332c-.127-3.167-.29-6.33-.49-9.49-.093-1.513.197-2.673.87-3.48 1.313-1.56 2.833-1.403 4.56.47.213.227.344.534.37.87 1.687 21.807 2.527 34.953 2.52 39.44-.013 5.42-1.93 10.003-5.75 13.75-4.333 4.253-9.773 6.157-16.32 5.71-1.287-.087-1.93.513-1.93 1.8 0 2.66-.033 5.323-.1 7.99-.06 2.287.667 4.273 2.18 5.96a.71.71 0 0 0 .81.18c1.753-.753 3.457-.8 5.11-.14a3305.908 3305.908 0 0 1 31.95 9.62c6.027 1.847 9.513 3.043 10.46 3.59 3.407 1.973 5.77 5.07 7.09 9.29.06.187 3.143 18.04 9.25 53.56v2.25c-1 4.187-3.603 6.75-7.81 7.69H7.69c-4.087-.98-6.65-3.5-7.69-7.56v-2.5c1.14-6.287 2.243-12.58 3.31-18.88 1.247-2.253 2.827-2.69 4.74-1.31.408.294.727.693.92 1.151.192.457.251.956.17 1.439l-3 17.93c-.42 2.487.613 3.73 3.1 3.73h17.65a.93.93 0 0 0 .59-.214.89.89 0 0 0 .31-.536c1.667-9.727 3.307-19.03 4.92-27.91.46-2.527 1.757-3.433 3.89-2.72 1.587.527 2.24 1.603 1.96 3.23l-4.65 27.39a.649.649 0 0 0 .64.76h108.81a.715.715 0 0 0 .698-.537.719.719 0 0 0 .012-.313 1164.873 1164.873 0 0 1-3.93-23.05c-.007-.047-.217-.883-.63-2.51-.373-1.467-.17-2.743.61-3.83.74-1.027 1.697-1.433 2.87-1.22 1.36.247 2.187 1.237 2.48 2.97 1.553 9.333 3.143 18.65 4.77 27.95a.66.66 0 0 0 .65.54h16.51c1.667 0 2.83-.283 3.49-.85.927-.793 1.22-1.947.88-3.46-.22-1-.33-1.503-.33-1.51a4955.421 4955.421 0 0 0-8.51-49.42c-.373-2.107-1.273-3.82-2.7-5.14-.927-.853-2.583-1.647-4.97-2.38a6028.312 6028.312 0 0 0-37.93-11.53.9.9 0 0 0-1.06.45 59915.04 59915.04 0 0 0-17.55 34.52c-1.647 3.24-3.15 5.35-4.51 6.33-2.387 1.707-5.207 2.037-8.46.99-2.24-.72-3.983-2.317-5.23-4.79a10907.507 10907.507 0 0 0-18.86-37.2.711.711 0 0 0-.84-.36c-12.94 3.927-25.777 7.813-38.51 11.66-2.673.807-4.653 2.17-5.94 4.09-.747 1.107-1.393 3.263-1.94 6.47-.88 5.187-1.817 10.613-2.81 16.28-.233 1.327-1.007 2.137-2.32 2.43-1.84.413-2.963-.227-3.37-1.92-.18-.727-.153-1.83.08-3.31 1.473-9.32 2.47-15.187 2.99-17.6 1.327-6.147 5.243-10.23 11.75-12.25 21.907-6.793 35.157-10.793 39.75-12 .587-.153 1.74.027 3.46.54.15.045.306.047.452.008a.734.734 0 0 0 .368-.228c1.253-1.42 1.897-3.11 1.93-5.07.06-3.227.057-6.233-.01-9.02a1.576 1.576 0 0 0-1.042-1.444c-.198-.07-.408-.1-.618-.086-3.913.24-7.467-.307-10.66-1.64-3.287-1.373-6-3.537-8.14-6.49-2.607-3.593-3.77-7.7-3.49-12.32.787-13.167 1.62-26.333 2.5-39.5.467-11.187 5.167-20.007 14.1-26.46a.687.687 0 0 0 .248-.343.704.704 0 0 0 .002-.427 539.227 539.227 0 0 0-2.04-6.33c-.093-4.487 1.95-7.237 6.13-8.25C70.663 2.74 78.537 1.26 87.31 0Zm27.32 10.71a194.126 194.126 0 0 0-22.15-4.3c-3.013-.4-6.527-.223-10.54.53a860.178 860.178 0 0 0-16.71 3.31c-1.433.3-1.893 1.137-1.38 2.51A340.805 340.805 0 0 0 68.25 24c.887 2.147 2.72 2.98 5.5 2.5 10.667 0 21.333.077 32 .23 2.387.033 4.073-1.107 5.06-3.42a134.54 134.54 0 0 0 4.37-11.6.786.786 0 0 0-.057-.62.784.784 0 0 0-.493-.38Zm-57.61 68.1c.263.16.488.374.659.628.17.254.284.541.331.842.94 5.933 2.84 10.773 5.7 14.52a51.588 51.588 0 0 0 7.84 8.24c3.247 2.733 6.46 4.663 9.64 5.79 7.567 2.673 14.953 1.5 22.16-3.52 2.893-2.007 5.757-4.547 8.59-7.62 4.12-4.473 6.69-9.593 7.71-15.36.007-.033.053-.423.14-1.17.24-2.147 1.643-3.117 4.21-2.91 2.96.24 4.293-1.177 4-4.25.027-2.067.01-4.13-.05-6.19a1.581 1.581 0 0 0-.3-.92c-1.127-1.473-2.677-2.053-4.65-1.74-.364.058-.703.027-.97-.09a6.528 6.528 0 0 1-2.56-2.09 1.104 1.104 0 0 0-.347-.31 1.016 1.016 0 0 0-.433-.13c-12.853-.813-24.313-3.76-34.38-8.84-4.367-2.207-9.017-5.737-13.95-10.59a.806.806 0 0 0-.393-.206.774.774 0 0 0-.437.036c-7.04 2.84-10.787 8.043-11.24 15.61l.07 2.43c.073 2.767-1.19 4.213-3.79 4.34-1.713.087-2.74.217-3.08.39-1.133.573-1.657 1.613-1.57 3.12.053.867.08 1.32.08 1.36v5.52c0 1.613.807 2.39 2.42 2.33 2.08-.073 3.613.187 4.6.78Zm-5.09 5.42-2.38-.61a.41.41 0 0 0-.19 0 .449.449 0 0 0-.175.084.51.51 0 0 0-.131.157.55.55 0 0 0-.064.199c-.927 7.513 2.117 12.677 9.13 15.49 1.66.667 1.927.3.8-1.1-2.887-3.587-5.013-8.1-6.38-13.54a1.042 1.042 0 0 0-.23-.442.766.766 0 0 0-.38-.238Zm73.26 1.96c-1.3 4.627-3.48 8.903-6.54 12.83-.687.887-.503 1.137.55.75 7.46-2.707 10.727-7.947 9.8-15.72a.589.589 0 0 0-.064-.202.523.523 0 0 0-.13-.157.431.431 0 0 0-.173-.085.374.374 0 0 0-.183.004l-2.68.74a.637.637 0 0 0-.341.254.93.93 0 0 0-.159.456l-.08 1.13Zm-38.62 29.96c-4.053-.313-8.337-1.61-12.85-3.89-.827-.42-1.197-.167-1.11.76.553 5.867-.863 10.493-4.25 13.88a.622.622 0 0 0-.174.363.723.723 0 0 0 .074.417l1.77 3.43c.099.193.244.355.419.468.174.113.372.173.571.172l35.93-.06c.172 0 .335-.038.473-.111a.705.705 0 0 0 .307-.299l1.68-3.23c.113-.218.152-.477.113-.745a1.656 1.656 0 0 0-.333-.765c-3.227-4.18-4.527-8.62-3.9-13.32.16-1.22-.29-1.517-1.35-.89-5.14 3.047-10.93 4.32-17.37 3.82Zm.79 47.88c2.273.913 3.93.323 4.97-1.77 3.78-7.613 7.71-15.51 11.79-23.69a.54.54 0 0 0-.023-.511.505.505 0 0 0-.437-.249l-29.56-.06a.364.364 0 0 0-.297.167.337.337 0 0 0-.013.333l12.53 24.84c.213.425.583.759 1.04.94Z"/><path d="M81 15a2 2 0 0 1 2-2h12a2 2 0 0 1 2 2v2a2 2 0 0 1-2 2H83a2 2 0 0 1-2-2v-2Z"/><path d="M88 24a2 2 0 0 1-2-2V10a2 2 0 0 1 2-2h2a2 2 0 0 1 2 2v12a2 2 0 0 1-2 2h-2Z"/></g><defs><clipPath id="a"><path fill="#fff" d="M0 0h178v208H0z"/></clipPath></defs></svg>