<svg width="120" height="120" viewBox="0 0 120 120" fill="none" xmlns="http://www.w3.org/2000/svg">
<rect width="120" height="120" rx="60" fill="#FFF9FB"/>
<g filter="url(#filter0_d_54_213)">
<path d="M99.072 92.3407L108.731 94.9289L111.319 104.588L104.248 111.659L94.5892 109.071L92.001 99.4118L99.072 92.3407Z" fill="white"/>
<path d="M92.001 99.4118L99.072 92.3407L108.731 94.9289L111.319 104.588L104.248 111.659L94.5892 109.071L92.001 99.4118Z" fill="white"/>
</g>
<g filter="url(#filter1_d_54_213)">
<path d="M14.3247 9.38712L24.0277 11.8063L26.7841 21.419L19.8375 28.6123L10.1345 26.1931L7.3782 16.5805L14.3247 9.38712Z" fill="white"/>
<path d="M7.3782 16.5805L14.3247 9.38712L24.0277 11.8063L26.7841 21.419L19.8375 28.6123L10.1345 26.1931L7.3782 16.5805Z" fill="white"/>
</g>
<circle cx="26" cy="93" r="3" fill="#D9F1FF"/>
<circle cx="107" cy="65" r="3" fill="#D9F1FF"/>
<circle cx="77" cy="16" r="3" fill="#D9F1FF"/>
<defs>
<filter id="filter0_d_54_213" x="89.001" y="89.3407" width="25.3185" height="25.3185" filterUnits="userSpaceOnUse" color-interpolation-filters="sRGB">
<feFlood flood-opacity="0" result="BackgroundImageFix"/>
<feColorMatrix in="SourceAlpha" type="matrix" values="0 0 0 0 0 0 0 0 0 0 0 0 0 0 0 0 0 0 127 0" result="hardAlpha"/>
<feOffset/>
<feGaussianBlur stdDeviation="1.5"/>
<feColorMatrix type="matrix" values="0 0 0 0 0.384314 0 0 0 0 0.517647 0 0 0 0 0.666667 0 0 0 0.15 0"/>
<feBlend mode="normal" in2="BackgroundImageFix" result="effect1_dropShadow_54_213"/>
<feBlend mode="normal" in="SourceGraphic" in2="effect1_dropShadow_54_213" result="shape"/>
</filter>
<filter id="filter1_d_54_213" x="4.37817" y="6.38712" width="25.4059" height="25.2252" filterUnits="userSpaceOnUse" color-interpolation-filters="sRGB">
<feFlood flood-opacity="0" result="BackgroundImageFix"/>
<feColorMatrix in="SourceAlpha" type="matrix" values="0 0 0 0 0 0 0 0 0 0 0 0 0 0 0 0 0 0 127 0" result="hardAlpha"/>
<feOffset/>
<feGaussianBlur stdDeviation="1.5"/>
<feColorMatrix type="matrix" values="0 0 0 0 0.384314 0 0 0 0 0.517647 0 0 0 0 0.666667 0 0 0 0.15 0"/>
<feBlend mode="normal" in2="BackgroundImageFix" result="effect1_dropShadow_54_213"/>
<feBlend mode="normal" in="SourceGraphic" in2="effect1_dropShadow_54_213" result="shape"/>
</filter>
</defs>
</svg>
