<svg xmlns="http://www.w3.org/2000/svg" width="60" height="60">
    <path fill="#e12454" d="M32.5 8c-3.578 0-6.5 2.922-6.5 6.5 0 3.66 2.138 7.398 4.469 10.312 1.165 1.457 2.39 2.701 3.488 3.607.549.453 1.063.82 1.547 1.094.484.273.913.487 1.496.487s1.012-.214 1.496-.487.998-.64 1.547-1.094c1.097-.906 2.323-2.15 3.488-3.607 2.332-2.914 4.47-6.652 4.47-10.312 0-3.578-2.923-6.5-6.5-6.5-1.744 0-3.292.834-4.5 2.049C35.79 8.834 34.243 8 32.5 8zm0 2c1.467 0 2.838.712 3.682 1.912a1 1 0 0 0 1.636 0A4.496 4.496 0 0 1 41.5 10c2.497 0 4.5 2.003 4.5 4.5 0 2.84-1.863 6.352-4.031 9.063-1.085 1.355-2.234 2.517-3.2 3.314a9.24 9.24 0 0 1-1.257.896c-.336.19-.595.227-.512.227s-.176-.037-.512-.227a9.24 9.24 0 0 1-1.258-.896c-.965-.797-2.114-1.959-3.199-3.314-2.168-2.711-4.03-6.223-4.03-9.063 0-2.497 2.002-4.5 4.5-4.5zM20.014 30a1 1 0 0 0-.908.553L14.383 40H9a1 1 0 0 0-1 1 1 1 0 0 0 1 1h6a1 1 0 0 0 .895-.553L20 33.237l9.106 18.21a1 1 0 0 0 1.789 0L37 39.237l3.106 6.21a1 1 0 0 0 1.607.254L45.356 42H51a1 1 0 0 0 1-1 1 1 0 0 0-1-1h-6.062a1 1 0 0 0-.713.299L41.27 43.3l-3.375-6.748a1 1 0 0 0-1.79 0L30 48.763l-9.105-18.21a1 1 0 0 0-.881-.553z"
          color="#e12454"
          style="font-feature-settings:normal;font-variant-alternates:normal;font-variant-caps:normal;font-variant-east-asian:normal;font-variant-ligatures:normal;font-variant-numeric:normal;font-variant-position:normal;font-variation-settings:normal;inline-size:0;isolation:auto;mix-blend-mode:normal;shape-margin:0;shape-padding:0;text-decoration-color:#000;text-decoration-line:none;text-decoration-style:solid;text-indent:0;text-orientation:mixed;text-transform:none"/>
</svg>
